# xmcd
#
# Track frame offsets: 
#        150
#        12405
#        25546
#        40438
#        54765
#        67057
#        81418
#        94173
#        107460
#        121090
#        133968
#        147646
#        161316
#        175945
#        190786
#        204297
#        218038
#        231480
#        246453
#        262356
#        276015
#        290202
#
# Disc length: 4068 seconds
#
# Revision: 0
# Processed by: cddbd v1.5.2PL0 Copyright (c) Steve Scherf et al.
# Submitted via: ExactAudioCopy v0.99pb5
#
DISCID=500fe216
DTITLE=Lonnie Johnson - Hot Fingers
DYEAR=1900
DGENRE=Blues
TTITLE0=Mr Johnson's Blues
TTITLE1=Mean Old Bed Bug Blues
TTITLE2=Four Hands Are Better Than Two
TTITLE3=Woke Up With the Blues in My Fingers
TTITLE4=Tin Can Alley Blues
TTITLE5=Blue Ghost Blues
TTITLE6=Blues in G
TTITLE7=Careless Love
TTITLE8=Playing With the Strings
TTITLE9=Away Down in the Alley Blues
TTITLE10=Two Tone Stomp
TTITLE11=Have to Change Keys to Play These Blues
TTITLE12=Guitar Blues
TTITLE13=Bullfrog Moan
TTITLE14=She's Making Whoopee in Hell Tonight
TTITLE15=Deep Minor Rhythm Stomp
TTITLE16=Hot Fingers
TTITLE17=Wipe It Off
TTITLE18=I Got the Best Jelly Roll in Town
TTITLE19=Sam, You Can't Do That to Me
TTITLE20=What Makes You Act Like That
TTITLE21=Let All Married Women Alone
EXTD=
EXTT0=
EXTT1=
EXTT2=
EXTT3=
EXTT4=
EXTT5=
EXTT6=
EXTT7=
EXTT8=
EXTT9=
EXTT10=
EXTT11=
EXTT12=
EXTT13=
EXTT14=
EXTT15=
EXTT16=
EXTT17=
EXTT18=
EXTT19=
EXTT20=
EXTT21=
PLAYORDER=
